<svg width="400" height="331" viewBox="0 0 400 331" version="1.1" xmlns="http://www.w3.org/2000/svg" xmlns:xlink="http://www.w3.org/1999/xlink">
<g id="Canvas" fill="none">
<g id="PlanetNotFound">
<g id="Death Star">
<g id="Ellipse">
<ellipse cx="94.3993" cy="94.3243" rx="94.3993" ry="94.3243" transform="matrix(0.998209 -0.0598186 0.0599141 0.998204 205.237 6.29367)" fill="#4F4F4F"/>
</g>
<g id="Intersect">
<path d="M 52.1309 184.969C 104.266 184.969 146.53 142.739 146.53 90.6449C 146.53 47.6333 117.719 11.3457 78.3277 0C 33.4146 10.6332 0 50.9634 0 99.0918C 0 135.085 18.688 166.716 46.8975 184.827C 48.63 184.921 50.3748 184.969 52.1309 184.969Z" transform="matrix(0.998209 -0.0598186 0.0599141 0.998204 247.65 7.43803)" fill="#333333"/>
</g>
<g id="Ellipse_2">
<ellipse cx="27.7092" cy="27.6872" rx="27.7092" ry="27.6872" transform="matrix(0.998209 -0.0598186 0.0599141 0.998204 249.116 31.8712)" fill="#828282"/>
</g>
<g id="Intersect_2">
<path d="M 9.86261 53.1876C 25.166 53.1876 37.5719 40.7916 37.5719 25.5003C 37.5719 14.042 30.6058 4.20934 20.6745 0C 8.57601 4.69662 0 16.4441 0 30.1931C 0 39.1841 3.66729 47.3191 9.58892 53.1863C 9.68007 53.1872 9.77134 53.1876 9.86261 53.1876Z" transform="matrix(0.998209 -0.0598186 0.0599141 0.998204 267.062 32.9866)" fill="#4F4F4F"/>
</g>
<g id="Ellipse_3">
<ellipse cx="21.1342" cy="21.1174" rx="21.1342" ry="21.1174" transform="matrix(0.998209 -0.0598186 0.0599141 0.998204 256.073 38.0359)" fill="#333333"/>
</g>
<g id="Ellipse_4">
<ellipse cx="8.92332" cy="8.91623" rx="8.92332" ry="8.91623" transform="matrix(0.998209 -0.0598186 0.0599141 0.998204 268.993 49.4847)" fill="#202020"/>
</g>
<g id="Intersect_3">
<path d="M 186.763 3.38871C 165.005 14.4275 134.949 22.1902 101.491 24.1952C 67.4227 26.2368 36.1424 21.9303 13.095 13.2597C 8.61558 11.5745 4.43773 9.72083 0.605107 7.71132C 0.381906 6.54366 0.180043 5.36789 0 4.18439C 4.2132 6.52743 8.92829 8.6835 14.0879 10.6246C 36.6856 19.1261 67.555 23.4082 101.322 21.3846C 135.089 19.3611 165.225 11.4231 186.644 0.283845C 186.826 0.189436 187.007 0.0948406 187.187 0C 187.066 1.13526 186.924 2.26498 186.763 3.38871Z" transform="matrix(1.00001 0 -8.65815e-10 0.999994 211.802 104.905)" fill="#202020"/>
</g>
</g>
<g id="Planet">
<g id="Intersect_4">
<path d="M 22.953 40.842C 10.1006 31.4583 1.37363 16.7693 0 0L 34.5642 3.79059L 22.953 40.842Z" transform="translate(22.0735 256.855)" fill="#828282"/>
</g>
<g id="Intersect_5">
<path d="M 65.2148 0.691394L 51.6614 30.0335L 30.5272 30.0335L 30.5272 46.9274L 12.6805 53.9665L 0.0473548 58.6417C 0.0159378 57.8694 0 57.0929 0 56.3128C 0 25.2121 25.2323 0 56.3579 0C 59.3713 0 62.3295 0.236298 65.2148 0.691394Z" transform="translate(26.77 174.263)" fill="#828282"/>
</g>
<g id="Intersect_6">
<path d="M 24.0881 101.256C 54.9414 105.361 83.2832 83.6972 87.3912 52.8685C 89.8898 34.118 82.8482 16.2959 70.0052 4.28559C 67.7556 2.76732 65.6228 1.33164 63.6395 0L 60.2303 25.5843L 61.7232 42.8258L 39.5671 59.7616L 46.8944 75.8857L 20.8583 89.9383L 0 75.8013L 3.62727 94.3822C 9.76098 97.8756 16.6586 100.268 24.0881 101.256Z" transform="translate(71.0125 211.295)" fill="#828282"/>
</g>
<g id="Subtract">
<path d="M 82.1504 5.55865C 76.9165 2.85694 71.2051 0.950892 65.1754 0L 65.1765 0.000171853L 51.6231 29.3423L 30.4889 29.3423L 30.4889 46.2362L 12.6422 53.2753L 0.00905818 57.9505C 0.00596235 57.8728 0.00286651 57.7952 0 57.7174C 0.031417 58.576 0.0820969 59.4296 0.151581 60.278L 34.7158 64.0686L 27.3934 87.434L 51.6231 101.141L 75.5753 83.7781L 66.1823 68.7613L 85.9076 49.0518L 82.1504 32.1579L 82.1504 5.55865Z" transform="translate(35.2238 192.095)" fill="#BDBDBD"/>
<path d="M 27.0014 88.6851L 23.1046 101.12C 26.5975 103.67 30.395 105.829 34.4326 107.53C 34.2877 107.469 34.1433 107.408 33.9991 107.345L 27.0014 88.6851Z" transform="translate(35.2238 192.095)" fill="#BDBDBD"/>
</g>
</g>
<g id="Fragments">
<path d="M 120.23 14.5475L 111.777 19.7095L 120.23 22.9944L 120.23 14.5475Z" transform="translate(0 159.715)" fill="#E0E0E0"/>
<path d="M 162.968 62.4134L 154.984 60.067L 162.968 67.5754L 171.422 62.4134L 162.968 62.4134Z" transform="translate(0 159.715)" fill="#E0E0E0"/>
<path d="M 92.9906 0L 89.2334 6.10056L 94.8692 7.50838L 92.9906 0Z" transform="translate(0 159.715)" fill="#E0E0E0"/>
<path d="M 0 92.9162L 7.04474 86.3464L 10.8019 86.3464L 0 92.9162Z" transform="translate(0 159.715)" fill="#E0E0E0"/>
<path d="M 36.163 157.676L 36.163 152.045L 40.3899 152.045L 40.3899 156.737L 36.163 157.676Z" transform="translate(0 159.715)" fill="#E0E0E0"/>
<path d="M 100.505 171.285L 97.6871 167.061L 104.262 167.061L 100.505 171.285Z" transform="translate(0 159.715)" fill="#E0E0E0"/>
<path d="M 25.8307 22.9944L 20.1949 19.7095L 25.8307 16.8939L 25.8307 22.9944Z" transform="translate(0 159.715)" fill="#E0E0E0"/>
<path d="M 170.483 133.743L 162.968 133.743L 162.968 138.436L 170.483 133.743Z" transform="translate(0 159.715)" fill="#E0E0E0"/>
</g>
<g id="Beam">
<rect width="11.2671" height="245.201" rx="5.63354" transform="matrix(0.70739 0.706824 -0.70739 0.706824 277.2 51.3129)" fill="#EB5757"/>
</g>
</g>
</g>
</svg>

