<svg width="234" height="234" viewBox="0 0 234 234" version="1.1" xmlns="http://www.w3.org/2000/svg" xmlns:xlink="http://www.w3.org/1999/xlink">
<g id="Canvas" fill="none">
<g id="PlanetMissing">
<g id="Ellipse">
<g mask="url(#path0_ins)">
<circle cx="117" cy="117" r="117" stroke-width="10" stroke-dasharray="10 8" stroke="#828282"/>
</g>
</g>
<g id="?">
<path d="M 13.0352 52.5859C 13.082 49.7969 13.3984 47.5938 13.9844 45.9766C 14.5703 44.3594 15.7656 42.5664 17.5703 40.5977L 22.1758 35.8516C 24.1445 33.625 25.1289 31.2344 25.1289 28.6797C 25.1289 26.2188 24.4844 24.2969 23.1953 22.9141C 21.9062 21.5078 20.0312 20.8047 17.5703 20.8047C 15.1797 20.8047 13.2578 21.4375 11.8047 22.7031C 10.3516 23.9688 9.625 25.668 9.625 27.8008L 3.12109 27.8008C 3.16797 24.0039 4.51562 20.9453 7.16406 18.625C 9.83594 16.2812 13.3047 15.1094 17.5703 15.1094C 22 15.1094 25.4453 16.3047 27.9062 18.6953C 30.3906 21.0625 31.6328 24.3203 31.6328 28.4688C 31.6328 32.5703 29.7344 36.6133 25.9375 40.5977L 22.1055 44.3945C 20.3945 46.293 19.5391 49.0234 19.5391 52.5859L 13.0352 52.5859ZM 12.7539 63.7305C 12.7539 62.6758 13.0703 61.7969 13.7031 61.0938C 14.3594 60.3672 15.3203 60.0039 16.5859 60.0039C 17.8516 60.0039 18.8125 60.3672 19.4688 61.0938C 20.125 61.7969 20.4531 62.6758 20.4531 63.7305C 20.4531 64.7852 20.125 65.6641 19.4688 66.3672C 18.8125 67.0469 17.8516 67.3867 16.5859 67.3867C 15.3203 67.3867 14.3594 67.0469 13.7031 66.3672C 13.0703 65.6641 12.7539 64.7852 12.7539 63.7305Z" transform="translate(100 75)" fill="#828282"/>
</g>
</g>
</g>
<defs>

<mask id="path0_ins" fill="white">
<circle cx="117" cy="117" r="117"/>
</mask>

</defs>
</svg>

