<svg width="138" height="138" viewBox="0 0 138 138" version="1.1" xmlns="http://www.w3.org/2000/svg" xmlns:xlink="http://www.w3.org/1999/xlink">
<g id="Canvas" fill="none">
<g id="Body">
<g id="Body_2">
<g id="Ellipse">
<circle cx="68" cy="68" r="68" transform="translate(1 0.999969)" fill="#E0E0E0"/>
<circle cx="68" cy="68" r="68.5" transform="translate(1 0.999969)" stroke="#BDBDBD"/>
</g>
<g id="Vector">
<path d="M 5 16.5L 30.5 0M 74 27L 75.5 54.5M 27 84L 0 70.5" transform="translate(46 28)" stroke="#4F4F4F"/>
</g>
<g id="Group">
<g id="Union">
<path fill-rule="evenodd" clip-rule="evenodd" d="M 11.2556 42.496C 11.1707 42.4987 11.0856 42.5 11 42.5C 4.92493 42.5 0 35.7843 0 27.5C 0 19.2157 4.92493 12.5 11 12.5C 11.8447 12.5 12.6576 12.6299 13.4312 12.8757L 13.4695 12.7634L 17.5 0C 26 3 31 10.5 33.5 20.5L 21.6912 23.874C 21.8929 25.0351 22 26.2497 22 27.5C 22 35.7843 17.299 42.5 11.5 42.5C 11.4183 42.5 11.3369 42.4987 11.2556 42.496ZM 9.5 19.5C 10.0464 19.5 10.5769 19.5881 11.0839 19.7542L 13.2695 13.3494C 12.5447 13.1201 11.7858 13 11 13C 8.16003 13 5.54663 14.5687 3.625 17.1891C 1.70361 19.8092 0.5 23.453 0.5 27.5C 0.5 31.547 1.70361 35.1908 3.625 37.8109C 5.08521 39.8022 6.94495 41.1861 9 41.7359L 9 36.4752C 5.6438 36.1414 3 32.4744 3 28C 3 23.3056 5.91016 19.5 9.5 19.5ZM 13.699 33.7067C 14.8029 32.2632 15.5 30.2472 15.5 28C 15.5 25.7528 14.8029 23.7368 13.699 22.2933C 12.5955 20.8503 11.1064 20 9.5 20C 7.89355 20 6.40454 20.8503 5.30103 22.2933C 4.19714 23.7368 3.5 25.7528 3.5 28C 3.5 30.2472 4.19714 32.2632 5.30103 33.7067C 6.40454 35.1497 7.89355 36 9.5 36C 11.1064 36 12.5955 35.1497 13.699 33.7067Z" transform="translate(12 44.5)" fill="#4F4F4F"/>
</g>
<g id="Union_2">
<path fill-rule="evenodd" clip-rule="evenodd" d="M 58 40.5C 58 62.8675 45.0162 81 29 81C 12.9838 81 0 62.8675 0 40.5C 0 18.1325 12.9838 0 29 0C 45.0162 0 58 18.1325 58 40.5ZM 21.3939 69.5667L 20.6876 62.6217C 20.556 61.3276 21.4337 60.1469 22.7109 59.9C 23.9257 59.6652 25.1306 60.3495 25.5513 61.5131L 28.4738 69.5983C 37.1906 67.56 44.0914 57.9794 45.663 45.7925L 38.1116 44.8772C 36.3357 44.6619 35 43.1546 35 41.3656C 35 39.6949 36.1689 38.252 37.8032 37.9054L 45.6232 36.2466C 45.6755 36.2355 45.7279 36.2253 45.7802 36.2159C 44.3954 22.8445 36.6255 12.381 26.9561 11.1263L 23.4926 20.607C 23.0521 21.8126 21.7639 22.4822 20.5242 22.15C 19.3441 21.8338 18.5707 20.7047 18.7021 19.4902L 19.511 12.0179C 11.2395 15.156 4.99084 25.2146 4.1073 37.4988L 5.22778 37.6787C 7.11328 37.9814 8.5 39.6085 8.5 41.5182C 8.5 43.2607 7.3407 44.7906 5.66309 45.2619L 4.31763 45.6399C 5.84326 57.8376 12.7034 67.454 21.3939 69.5667Z" transform="translate(2 31)" fill="#F2994A"/>
</g>
<g id="Ellipse_2">
<ellipse cx="2" cy="3.5" rx="2" ry="3.5" transform="matrix(0.934841 0.355066 -0.355066 0.934841 15.4855 42)" fill="#4F4F4F"/>
</g>
<g id="Subtract">
<path d="M 0 1.11807L 2.98157 0C 4.49609 6.71875 8.75061 11.9334 13.8339 14.0472L 14.1344 20.0597C 7.62854 18.0954 2.04614 11.6421 0.330811 3.15918C 0.192627 2.47583 0.0826416 1.79486 0 1.11807Z" transform="translate(7.83142 78.7576)" fill="#4F4F4F"/>
</g>
</g>
<g id="Group_2">
<g id="Union_3">
<path fill-rule="evenodd" clip-rule="evenodd" d="M 6.7974 42.0592C 6.74609 42.0618 6.69471 42.0632 6.64303 42.0632C 2.97422 42.0632 0 35.4165 0 27.2173C 0 19.0182 2.97422 12.3715 6.64303 12.3715C 7.15318 12.3715 7.64408 12.5 8.11124 12.7434L 8.13439 12.6322L 10.5685 0C 15.7017 2.96916 18.7213 10.3921 20.2311 20.2893L 13.0996 23.6286C 13.2214 24.7778 13.2861 25.9799 13.2861 27.2173C 13.2861 35.4165 10.447 42.0632 6.94499 42.0632C 6.89567 42.0632 6.8465 42.0618 6.7974 42.0592ZM 5.73717 19.2996C 6.06714 19.2996 6.38752 19.3868 6.69368 19.5511L 8.01363 13.2122C 7.57588 12.9852 7.11757 12.8664 6.64303 12.8664C 4.92794 12.8664 3.34968 14.4189 2.18918 17.0124C 1.02883 19.6056 0.301956 23.2119 0.301956 27.2173C 0.301956 31.2227 1.02883 34.8291 2.18918 37.4223C 3.07102 39.393 4.19414 40.7628 5.43521 41.3069L 5.43521 36.1003C 3.40836 35.7699 1.81174 32.1406 1.81174 27.7122C 1.81174 23.066 3.56922 19.2996 5.73717 19.2996ZM 8.27298 33.3602C 8.93963 31.9315 9.36064 29.9363 9.36064 27.7122C 9.36064 25.4881 8.93963 23.4929 8.27298 22.0642C 7.60655 20.6359 6.70732 19.7944 5.73717 19.7944C 4.76701 19.7944 3.86778 20.6359 3.20135 22.0642C 2.53471 23.4929 2.11369 25.4881 2.11369 27.7122C 2.11369 29.9363 2.53471 31.9315 3.20135 33.3602C 3.86778 34.7885 4.76701 35.63 5.73717 35.63C 6.70732 35.63 7.60655 34.7885 8.27298 33.3602Z" transform="matrix(-0.606785 0.794866 -0.794866 -0.606785 128.691 36.3373)" fill="#4F4F4F"/>
</g>
<g id="Intersect">
<path fill-rule="evenodd" clip-rule="evenodd" d="M 8.93753 0C 36.5254 2.75134 59.258 21.9915 67.1377 47.7227C 66.9722 49.4405 66.4229 50.9613 65.4569 52.2265C 59.5879 59.9148 40.5653 55.258 22.9689 41.8252C 5.37247 28.3924 -4.13449 11.2704 1.73465 3.58215C 3.29605 1.53668 5.78861 0.365051 8.93753 0ZM 19.2388 10.629L 13.5163 6.79724C 18.3629 3.89429 28.442 6.3764 38.5971 12.9693L 38.4014 13.8422C 38.1574 14.9305 38.9361 16.4058 40.3069 17.4523C 41.8092 18.5992 43.5974 18.9106 44.5265 18.1873L 45.0786 17.7574C 54.4187 25.5588 60.0421 34.5991 59.4798 40.4542L 53.8977 35.5785C 52.9904 34.7859 51.8188 34.4792 51.1376 34.8557C 50.4219 35.2513 50.4767 36.2719 51.2637 37.2073L 57.453 44.5635C 52.9226 48.4516 41.8438 45.8976 30.817 38.5321C 30.8289 38.5014 30.84 38.4701 30.8505 38.4383L 32.411 33.6884C 32.7372 32.6956 32.0304 31.268 30.7161 30.2646C 29.3087 29.1903 27.6336 28.9263 26.8134 29.6495L 23.3262 32.7247C 14.3146 24.6514 9.30643 15.5852 10.8971 10.1768L 18.3286 13.6295C 19.3981 14.1263 20.3781 13.9589 20.6385 13.2348C 20.9123 12.4734 20.3051 11.343 19.2388 10.629Z" transform="matrix(1 -1.12105e-08 1.12105e-08 1 66.8922 1.33868)" fill="#F2994A"/>
</g>
<g id="Ellipse_3">
<ellipse cx="1.33" cy="3.32414" rx="1.33" ry="3.32414" transform="matrix(-0.935184 0.354162 -0.637347 -0.770576 129.381 39.5118)" fill="#4F4F4F"/>
</g>
<g id="Subtract_2">
<path d="M 0 1.10658L 1.80061 0C 2.71525 6.64969 5.2846 11.8108 8.35444 13.9028L 8.53594 19.8535C 4.60697 17.9094 1.23569 11.5224 0.199781 3.12671C 0.11633 2.45038 0.0499083 1.77641 0 1.10658Z" transform="matrix(-0.606785 0.794866 -0.794866 -0.606785 103.268 13.7629)" fill="#4F4F4F"/>
</g>
</g>
<g id="Group_3">
<g id="Intersect_2">
<path fill-rule="evenodd" clip-rule="evenodd" d="M 68.5176 10.3745C 59.6872 36.6129 35.2862 55.6948 6.29955 56.6351C 4.46947 55.9775 2.97057 54.9483 1.88439 53.5285C -4.28859 45.4595 5.20238 27.8293 23.0829 14.1503C 40.9635 0.47138 60.4626 -4.07635 66.6356 3.99265C 67.9602 5.72416 68.5636 7.89594 68.5176 10.3745ZM 55.1478 19.4197L 60.4274 14.8167C 62.088 20.487 57.0447 29.8241 47.8818 38.0523L 47.061 37.6056C 46.0377 37.0486 44.368 37.4002 42.975 38.4659C 41.4484 39.6337 40.6821 41.3274 41.1669 42.4624L 41.4549 43.1369C 31.2944 50.2043 20.8452 53.2076 15.1488 50.9594L 21.4338 46.7972C 22.4553 46.1207 23.0598 45.0406 22.8578 44.2527C 22.6455 43.425 21.6138 43.1855 20.4802 43.7009L 11.5665 47.7539C 8.84276 42.1151 14.2125 31.8017 24.3679 22.9267C 24.3955 22.9473 24.4239 22.9674 24.453 22.987L 28.793 25.9122C 29.6999 26.5236 31.3039 26.2301 32.6395 25.2084C 34.0696 24.1144 34.7598 22.5196 34.2473 21.4933L 32.0686 17.1291C 42.4165 10.4679 52.7349 8.08555 57.724 11.2305L 52.3871 17.6474C 51.619 18.5709 51.5364 19.5965 52.1922 20.0649C 52.8818 20.5573 54.1639 20.2775 55.1478 19.4197Z" transform="translate(64.9456 80.3284)" fill="#F2994A"/>
</g>
<g id="Union_4">
<path fill-rule="evenodd" clip-rule="evenodd" d="M 36.4962 1.5433C 36.531 1.58448 36.5649 1.62653 36.5979 1.66964C 38.9393 4.73027 35.4689 11.3185 28.8465 16.3848C 22.2241 21.451 14.9574 23.0769 12.616 20.0162C 12.2904 19.5907 12.0809 19.1017 11.9793 18.5616L 11.8748 18.611L 0.118276 24.386C -0.759581 18.269 3.30881 11.1633 10.3392 3.78827L 17.5877 7.67423C 18.4382 6.86246 19.3678 6.06575 20.3673 5.30112C 26.9898 0.234845 34.1702 -1.50379 36.4052 1.41774C 36.4366 1.45888 36.467 1.50072 36.4962 1.5433ZM 18.7899 16.4911C 18.5793 16.2158 18.4453 15.8946 18.3826 15.5377L 12.4202 18.3534C 12.5163 18.8588 12.7128 19.3146 13.0157 19.7105C 14.1102 21.1412 16.3715 21.4985 19.2069 20.8642C 22.0419 20.2298 25.4186 18.6078 28.6538 16.1329C 31.889 13.6579 34.3379 10.8231 35.6919 8.2528C 36.7209 6.2994 37.1104 4.5161 36.7579 3.14455L 32.5525 6.36172C 33.5792 8.25675 31.6668 11.8312 28.09 14.5676C 24.3372 17.4385 20.1735 18.2996 18.7899 16.4911ZM 28.5283 5.68746C 26.9489 6.01413 25.0686 6.89578 23.2722 8.27005C 21.4758 9.64433 20.133 11.2284 19.4045 12.6674C 18.6762 14.1058 18.5704 15.376 19.1896 16.1853C 19.8087 16.9946 21.0623 17.2248 22.6412 16.8983C 24.2206 16.5716 26.1009 15.69 27.8973 14.3157C 29.6937 12.9414 31.0365 11.3573 31.765 9.91837C 32.4933 8.47991 32.5991 7.20977 31.9799 6.40044C 31.3608 5.59111 30.1072 5.36091 28.5283 5.68746Z" transform="translate(78.0817 101.971)" fill="#4F4F4F"/>
</g>
<g id="Ellipse_4">
<path d="M 2.94547 0.569097C 4.65454 -0.190228 6.10849 -0.189621 6.19295 0.570451C 6.27742 1.33052 4.96041 2.56224 3.25133 3.32156C 1.54226 4.08089 0.088307 4.08028 0.0038457 3.32021C -0.0806156 2.56014 1.23639 1.32842 2.94547 0.569097Z" transform="translate(81.4462 130.25)" fill="#4F4F4F"/>
</g>
<g id="Subtract_3">
<path d="M 2.04293 18.7048L 0 17.8864C 4.78723 13.0145 7.31605 7.68202 7.04664 3.82837L 11.7372 0C 12.6744 4.47892 9.66716 11.2379 3.54709 17.2898C 3.05408 17.7774 2.5521 18.2492 2.04293 18.7048Z" transform="translate(112.788 96.9345)" fill="#4F4F4F"/>
</g>
</g>
</g>
</g>
</g>
</svg>

